<svg id="Layer_1" data-name="Layer 1" xmlns="http://www.w3.org/2000/svg" viewBox="0 0 476.15 355.64"><defs><style>.cls-1,.cls-6{fill:#31a8df;}.cls-2{fill:#f89f1b;}.cls-3{fill:#f26c26;}.cls-4{fill:#959595;}.cls-5{fill:#f7f6f5;}.cls-6{font-size:118.45px;font-family:BandaRegular, Banda Regular;}.cls-7{letter-spacing:-0.01em;}.cls-8{letter-spacing:-0.01em;}.cls-9{letter-spacing:0.01em;}.cls-10{letter-spacing:-0.01em;}.cls-11{letter-spacing:0.01em;}</style></defs><title>logo2</title><g id="_Group_" data-name="&lt;Group&gt;"><path id="_Compound_Path_" data-name="&lt;Compound Path&gt;" class="cls-1" d="M713.45,282.75c-1.83-.23-3.62.21-5.45.12-2.22-.11-2.23,0-2.23,2.19q0,43.24,0,86.47c0,2.92-1.35,4.3-4.22,4.3H638.71c-2.65,0-4.13-1.23-4.2-3.87-.15-5.49,0-78.92-.08-106.26,0-3.47,1.48-5.34,5.36-5.3,10.5.11,21,0,31.51.06,1,0,1.72,0,1.71-1.41-.07-5.54,0-11.07,0-16.61,0-.94-.26-1.3-1.25-1.3-11.87,0-23.74,0-35.61.08a4.75,4.75,0,0,0-1.52.2,13,13,0,0,0-9.07,12.73c.13,35.16.13,124.28.15,131.29a4.12,4.12,0,0,0,.23.81c1.09,4.83,7.19,9.14,12.26,9.12q31.25-.09,62.5,0a14.7,14.7,0,0,0,8.76-2.45,11.15,11.15,0,0,0,4.78-6.95,36.47,36.47,0,0,0,.47-7.49q0-46.75,0-93.49a7.7,7.7,0,0,1,0-.86C714.8,283.22,714.38,282.86,713.45,282.75ZM670.21,391.16a5.84,5.84,0,0,1-5.54-5.54,5.77,5.77,0,0,1,5.42-5.64,5.6,5.6,0,0,1,5.54,5.51A5.75,5.75,0,0,1,670.21,391.16Z" transform="translate(-418.5 -205.74)"/><path id="_Compound_Path_2" data-name="&lt;Compound Path&gt;" class="cls-2" d="M670.12,343c-7.71,0-15.41,0-23.12,0-1.05,0-1.6-.09-1.64-1.43-.52-15.51,0-31-.25-46.55,0-1.48.29-1.92,1.85-1.92q23.2.1,46.41,0c1.47,0,1.79.44,1.79,1.83q-.07,23.2,0,46.41c0,1.42-.46,1.67-1.75,1.66C685.65,343,677.88,343,670.12,343ZM659,335.74c1.77,0,3.53,0,5.3,0,.8,0,1.11-.25,1.1-1.08q0-5.21,0-10.43c0-.94-.35-1.3-1.32-1.29-3.42,0-6.84,0-10.25,0-1,0-1.27.46-1.27,1.33,0,3.42,0,6.84,0,10.25,0,1,.41,1.24,1.33,1.21C655.59,335.7,657.3,335.74,659,335.74Z" transform="translate(-418.5 -205.74)"/><path id="_Path_" data-name="&lt;Path&gt;" class="cls-2" d="M684,256.43c0-4.62,0-9.24,0-13.86,0-1.05.17-1.47,1.36-1.46q14,.08,27.9,0c1.15,0,1.43.36,1.42,1.46q-.06,13.86,0,27.73c0,1.32-.48,1.62-1.7,1.62q-13.78-.06-27.56,0c-1.15,0-1.45-.37-1.43-1.46C684.06,265.79,684,261.11,684,256.43Z" transform="translate(-418.5 -205.74)"/><path id="_Path_2" data-name="&lt;Path&gt;" class="cls-1" d="M735.94,230.24c2.91,0,5.81,0,8.72,0,1,0,1.57.24,1.47,1.34-.5,5.63-.11,11.27-.22,16.9,0,2.33,0,2.33-2.27,2.33-5.41,0-10.83,0-16.24,0-1.37,0-1.89-.3-1.87-1.78.08-5.64.07-11.28,0-16.92,0-1.42.43-1.9,1.85-1.86,2.85.09,5.7,0,8.55,0Z" transform="translate(-418.5 -205.74)"/><path id="_Path_3" data-name="&lt;Path&gt;" class="cls-2" d="M716,212.26c0-1.76,0-3.53,0-5.29,0-.81.1-1.25,1.09-1.23,3.53.05,7.06,0,10.58,0,.8,0,1.1.29,1.09,1.1,0,3.53,0,7.05,0,10.58,0,1-.31,1.26-1.41,1.21-3.29-.15-6.6-.13-9.9-.05-1.23,0-1.55-.37-1.48-1.54.1-1.59,0-3.18,0-4.78Z" transform="translate(-418.5 -205.74)"/><g id="_Group_2" data-name="&lt;Group&gt;"><path id="_Path_4" data-name="&lt;Path&gt;" class="cls-3" d="M760.19,273.44l.07.11,0-.14Z" transform="translate(-418.5 -205.74)"/><path id="_Compound_Path_3" data-name="&lt;Compound Path&gt;" class="cls-4" d="M774.53,324.29A128,128,0,0,0,772,304.7a110.57,110.57,0,0,0-3.89-13.84,93.12,93.12,0,0,0-7.89-17.31c.17.47.33.95.52,1.41,1.15,2.7,2.43,5.35,3.45,8.1a110.21,110.21,0,0,1,6.29,33.21,89.45,89.45,0,0,1-2.92,25.89,98.43,98.43,0,0,1-4.42,13.47c-1.74,4.6-4.37,8.71-6.43,13.13-1.64,3.53-4.15,6.54-6.44,9.65a98.55,98.55,0,0,1-24.09,23,100.86,100.86,0,0,1-31.19,14,92.73,92.73,0,0,1-19.37,2.95,102.63,102.63,0,0,1-31.77-3.4,98.43,98.43,0,0,1-23.33-9.64c-9.32-5.29-22.21-16.73-28-23.83a95.91,95.91,0,0,1-17.16-30.91,109.57,109.57,0,0,1-4-15.89A96.07,96.07,0,0,1,570,320.61a93.59,93.59,0,0,1,1.58-20.77c.73-3.56,1.63-7.08,2.72-10.57,1-3.29,2-6.59,3.37-9.76a101.14,101.14,0,0,1,56.44-54.84,105.62,105.62,0,0,1,17.09-5,86.45,86.45,0,0,1,19.33-1.9c5.62.15,11.28.23,16.75,1.78,1.66.47,3.27.19,4.89.41a127,127,0,0,0-18.62-3.59,109.94,109.94,0,0,0-37.69,2.42,104.84,104.84,0,0,0-17.57,5.84,113.35,113.35,0,0,0-62.51,66.45,117.81,117.81,0,0,0-5.39,22.84,111.19,111.19,0,0,0,.47,32.73,91.21,91.21,0,0,0,6.71,23.48,170.92,170.92,0,0,0,8.25,16.42c5.21,8.84,14.28,18.57,14.17,18.66a112.52,112.52,0,0,0,48.38,30.43,105.26,105.26,0,0,0,23.36,4.74,114.35,114.35,0,0,0,30.17-1.3,112.59,112.59,0,0,0,23.61-7,114.3,114.3,0,0,0,24.08-13.95,112.33,112.33,0,0,0,30.49-34.71,108.48,108.48,0,0,0,13.61-41.58C774.12,339.17,774.53,329.83,774.53,324.29Z" transform="translate(-418.5 -205.74)"/></g><path id="_Path_5" data-name="&lt;Path&gt;" class="cls-3" d="M760.21,273.42l-.17-.21.15.23Z" transform="translate(-418.5 -205.74)"/><path id="_Path_6" data-name="&lt;Path&gt;" class="cls-5" d="M675.63,385.49a5.75,5.75,0,0,1-5.42,5.67,5.84,5.84,0,0,1-5.54-5.54,5.77,5.77,0,0,1,5.42-5.64A5.6,5.6,0,0,1,675.63,385.49Z" transform="translate(-418.5 -205.74)"/></g><text class="cls-6" transform="translate(0 324.02)">i<tspan class="cls-7" x="28.54" y="0">C</tspan><tspan class="cls-8" x="105.3" y="0">o</tspan><tspan class="cls-9" x="178.26" y="0">l</tspan><tspan class="cls-7" x="207.99" y="0">a</tspan><tspan class="cls-10" x="270.88" y="0">s</tspan><tspan class="cls-11" x="322.88" y="0">o</tspan><tspan x="398.8" y="0">ft</tspan></text></svg>